<svg version="1.1" id="Layer_1" xmlns="http://www.w3.org/2000/svg" xmlns:xlink="http://www.w3.org/1999/xlink" x="0px" y="0px"
	 width="100%" viewBox="0 0 2181 3400" enable-background="new 0 0 2181 3400" xml:space="preserve">
<path fill="#000000" opacity="1.000000" stroke="none" 
	d="
M2184.000000,1034.000000 
	C2184.000000,1823.929443 2184.000000,2612.858887 2184.000000,3401.894043 
	C1456.802246,3401.894043 729.604492,3401.894043 2.203356,3401.894043 
	C2.203356,2268.903564 2.203356,1135.807129 2.203356,2.355348 
	C729.333191,2.355348 1456.666626,2.355348 2184.000000,2.355348 
	C2184.000000,345.729431 2184.000000,689.364685 2184.000000,1034.000000 
M1551.000122,203.703308 
	C1102.443970,203.703308 653.887939,203.703308 204.943008,203.703308 
	C204.943008,1203.399780 204.943008,2202.158447 204.943008,3201.290527 
	C797.952271,3201.290527 1390.407959,3201.290527 1983.287354,3201.290527 
	C1983.287354,2202.019531 1983.287354,1203.260376 1983.287354,203.703308 
	C1839.509277,203.703308 1696.254761,203.703308 1551.000122,203.703308 
z"/>
<path fill="#FCFCFC" opacity="1.000000" stroke="none" 
	d="
M1552.000244,203.703308 
	C1696.254761,203.703308 1839.509277,203.703308 1983.287354,203.703308 
	C1983.287354,1203.260376 1983.287354,2202.019531 1983.287354,3201.290527 
	C1390.407959,3201.290527 797.952271,3201.290527 204.943008,3201.290527 
	C204.943008,2202.158447 204.943008,1203.399780 204.943008,203.703308 
	C653.887939,203.703308 1102.443970,203.703308 1552.000244,203.703308 
M1910.677490,2905.000244 
	C1910.677490,2029.131714 1910.677490,1153.263062 1910.677490,276.889343 
	C1366.011475,276.889343 822.244690,276.889343 278.093414,276.889343 
	C278.093414,1227.520996 278.093414,2177.634521 278.093414,3128.172607 
	C822.277710,3128.172607 1366.032715,3128.172607 1910.677490,3128.172607 
	C1910.677490,3054.136230 1910.677490,2980.568359 1910.677490,2905.000244 
z"/>
<path fill="#000000" opacity="1.000000" stroke="none" 
	d="
M1910.677490,2906.000488 
	C1910.677490,2980.568359 1910.677490,3054.136230 1910.677490,3128.172607 
	C1366.032715,3128.172607 822.277710,3128.172607 278.093414,3128.172607 
	C278.093414,2177.634521 278.093414,1227.520996 278.093414,276.889343 
	C822.244690,276.889343 1366.011475,276.889343 1910.677490,276.889343 
	C1910.677490,1153.263062 1910.677490,2029.131714 1910.677490,2906.000488 
M1553.420288,993.040405 
	C1552.976685,992.084656 1552.532959,991.128967 1553.611694,989.765198 
	C1562.934937,987.286926 1572.378052,985.186279 1581.562500,982.270569 
	C1653.278931,959.503906 1692.388306,908.539124 1693.784424,833.561157 
	C1694.864136,775.581360 1694.198242,717.566406 1694.019653,659.567993 
	C1693.981812,647.272095 1693.443481,634.880615 1691.837158,622.704529 
	C1686.707397,583.820496 1670.026123,551.024963 1638.906616,526.313354 
	C1624.155396,514.599609 1607.634399,506.102966 1589.901978,499.899323 
	C1554.875488,487.645355 1518.585815,483.745300 1481.735718,483.730957 
	C1391.402344,483.695801 1301.069092,483.712402 1210.735718,483.734558 
	C1207.843628,483.735260 1204.951538,484.023773 1202.452148,484.157166 
	C1202.452148,489.395874 1202.452148,493.851288 1202.452148,499.193054 
	C1228.993530,499.193054 1254.841797,499.193054 1280.954102,499.193054 
	C1280.954102,842.610779 1280.954102,1185.095093 1280.954102,1528.348145 
	C1254.506226,1528.348145 1228.622803,1528.348145 1202.386230,1528.348145 
	C1202.386230,1533.860718 1202.386230,1538.594116 1202.386230,1543.898071 
	C1206.644043,1543.898071 1210.262573,1543.898193 1213.881104,1543.898193 
	C1307.547729,1543.898193 1401.214722,1543.999512 1494.880981,1543.812256 
	C1513.523560,1543.774902 1532.211548,1543.260742 1550.794189,1541.852417 
	C1578.454468,1539.756226 1605.524780,1534.349976 1631.391357,1523.911865 
	C1670.798828,1508.009399 1700.528931,1481.760132 1717.511353,1442.296265 
	C1727.800171,1418.386719 1731.642212,1393.089722 1731.678101,1367.209595 
	C1731.773560,1298.543091 1731.919556,1229.875000 1731.531128,1161.210571 
	C1731.452271,1147.291504 1730.301758,1133.150513 1727.608521,1119.514038 
	C1716.888428,1065.233032 1686.295044,1027.547607 1633.237061,1009.125305 
	C1607.535156,1000.201294 1580.928223,996.402771 1553.420288,993.040405 
M814.999390,2921.040771 
	C894.583679,2921.040771 974.167908,2921.040771 1053.708130,2921.040771 
	C1053.708130,2908.569580 1053.708130,2897.121338 1053.708130,2885.062988 
	C992.717590,2885.062988 932.490173,2885.062988 872.000977,2885.062988 
	C872.000977,2096.339844 872.000977,1308.260132 872.000977,519.181641 
	C933.006897,519.181641 993.464539,519.181641 1054.031738,519.181641 
	C1054.031738,506.970337 1054.031738,495.762878 1054.031738,484.333008 
	C870.835266,484.333008 688.080566,484.333008 504.586670,484.333008 
	C504.586670,494.543030 504.566101,504.150970 504.606995,513.758667 
	C504.613770,515.349731 504.889252,516.939575 505.155426,519.737976 
	C566.314453,519.737976 627.032104,519.737976 687.662048,519.737976 
	C687.662048,1308.823120 687.662048,2096.643066 687.662048,2885.494873 
	C674.969177,2885.494873 662.727966,2885.494873 650.486694,2885.494873 
	C638.487610,2885.494873 626.488525,2885.494873 614.489441,2885.494873 
	C602.157043,2885.494873 589.824646,2885.494873 577.492249,2885.494873 
	C565.493164,2885.494873 553.493958,2885.467285 541.494934,2885.502686 
	C529.345947,2885.538574 517.183838,2885.339111 504.968384,2885.641846 
	C504.968384,2898.015137 504.968384,2908.906494 504.968384,2921.040527 
	C607.899536,2921.040527 710.449402,2921.040527 814.999390,2921.040771 
M1461.000000,1653.788086 
	C1371.024048,1653.787842 1281.047974,1653.784058 1191.072021,1653.801392 
	C1187.416138,1653.802124 1183.760010,1653.994263 1180.105347,1654.134033 
	C1179.836182,1654.144409 1179.552246,1654.427612 1179.322876,1654.636475 
	C1179.079102,1654.858521 1178.892212,1655.143188 1178.930054,1655.097168 
	C1178.930054,1678.918457 1178.930054,1702.432129 1178.930054,1726.045654 
	C1349.392578,1726.045654 1519.234131,1726.045654 1689.409912,1726.045654 
	C1689.409912,1701.851929 1689.409912,1678.092529 1689.409912,1653.788086 
	C1613.535278,1653.788086 1538.267700,1653.788086 1461.000000,1653.788086 
z"/>
<path fill="#FDFDFD" opacity="1.000000" stroke="none" 
	d="
M813.999390,2921.040527 
	C710.449402,2921.040527 607.899536,2921.040527 504.968384,2921.040527 
	C504.968384,2908.906494 504.968384,2898.015137 504.968384,2885.641846 
	C517.183838,2885.339111 529.345947,2885.538574 541.494934,2885.502686 
	C553.493958,2885.467285 565.493164,2885.494873 577.492249,2885.494873 
	C589.824646,2885.494873 602.157043,2885.494873 614.489441,2885.494873 
	C626.488525,2885.494873 638.487610,2885.494873 650.486694,2885.494873 
	C662.727966,2885.494873 674.969177,2885.494873 687.662048,2885.494873 
	C687.662048,2096.643066 687.662048,1308.823120 687.662048,519.737976 
	C627.032104,519.737976 566.314453,519.737976 505.155426,519.737976 
	C504.889252,516.939575 504.613770,515.349731 504.606995,513.758667 
	C504.566101,504.150970 504.586670,494.543030 504.586670,484.333008 
	C688.080566,484.333008 870.835266,484.333008 1054.031738,484.333008 
	C1054.031738,495.762878 1054.031738,506.970337 1054.031738,519.181641 
	C993.464539,519.181641 933.006897,519.181641 872.000977,519.181641 
	C872.000977,1308.260132 872.000977,2096.339844 872.000977,2885.062988 
	C932.490173,2885.062988 992.717590,2885.062988 1053.708130,2885.062988 
	C1053.708130,2897.121338 1053.708130,2908.569580 1053.708130,2921.040771 
	C974.167908,2921.040771 894.583679,2921.040771 813.999390,2921.040527 
z"/>
<path fill="#FDFDFD" opacity="1.000000" stroke="none" 
	d="
M1554.031494,993.913391 
	C1580.928223,996.402771 1607.535156,1000.201294 1633.237061,1009.125305 
	C1686.295044,1027.547607 1716.888428,1065.233032 1727.608521,1119.514038 
	C1730.301758,1133.150513 1731.452271,1147.291504 1731.531128,1161.210571 
	C1731.919556,1229.875000 1731.773560,1298.543091 1731.678101,1367.209595 
	C1731.642212,1393.089722 1727.800171,1418.386719 1717.511353,1442.296265 
	C1700.528931,1481.760132 1670.798828,1508.009399 1631.391357,1523.911865 
	C1605.524780,1534.349976 1578.454468,1539.756226 1550.794189,1541.852417 
	C1532.211548,1543.260742 1513.523560,1543.774902 1494.880981,1543.812256 
	C1401.214722,1543.999512 1307.547729,1543.898193 1213.881104,1543.898193 
	C1210.262573,1543.898193 1206.644043,1543.898071 1202.386230,1543.898071 
	C1202.386230,1538.594116 1202.386230,1533.860718 1202.386230,1528.348145 
	C1228.622803,1528.348145 1254.506226,1528.348145 1280.954102,1528.348145 
	C1280.954102,1185.095093 1280.954102,842.610779 1280.954102,499.193054 
	C1254.841797,499.193054 1228.993530,499.193054 1202.452148,499.193054 
	C1202.452148,493.851288 1202.452148,489.395874 1202.452148,484.157166 
	C1204.951538,484.023773 1207.843628,483.735260 1210.735718,483.734558 
	C1301.069092,483.712402 1391.402344,483.695801 1481.735718,483.730957 
	C1518.585815,483.745300 1554.875488,487.645355 1589.901978,499.899323 
	C1607.634399,506.102966 1624.155396,514.599609 1638.906616,526.313354 
	C1670.026123,551.024963 1686.707397,583.820496 1691.837158,622.704529 
	C1693.443481,634.880615 1693.981812,647.272095 1694.019653,659.567993 
	C1694.198242,717.566406 1694.864136,775.581360 1693.784424,833.561157 
	C1692.388306,908.539124 1653.278931,959.503906 1581.562500,982.270569 
	C1572.378052,985.186279 1562.934937,987.286926 1552.101807,989.823730 
	C1548.041626,990.564331 1545.491211,991.246338 1542.940918,991.928284 
	C1543.046387,992.590027 1543.151855,993.251709 1543.257324,993.913391 
	C1546.848633,993.913391 1550.440063,993.913391 1554.031494,993.913391 
M1595.152832,1021.707214 
	C1585.292847,1017.778625 1575.640503,1013.174866 1565.528564,1010.065552 
	C1545.951660,1004.045837 1525.563721,1002.742249 1505.257568,1002.558899 
	C1459.941650,1002.149658 1414.619507,1002.412903 1369.299927,1002.435791 
	C1366.775391,1002.437073 1364.250977,1002.744080 1361.901733,1002.897339 
	C1359.949829,1018.217102 1360.616089,1520.891968 1362.518799,1527.908203 
	C1363.460449,1528.029053 1364.441162,1528.264648 1365.421875,1528.264893 
	C1415.739868,1528.276123 1466.058838,1528.441040 1516.375610,1528.181030 
	C1538.426270,1528.067017 1560.219116,1525.466064 1581.239868,1518.218628 
	C1604.757812,1510.110107 1622.342285,1495.184814 1632.745483,1472.476929 
	C1636.467041,1464.353882 1639.578003,1455.837646 1641.916138,1447.215576 
	C1649.110474,1420.685303 1651.464966,1393.417236 1651.696655,1366.091187 
	C1652.224731,1303.782471 1652.181519,1241.466919 1652.035522,1179.154907 
	C1651.965088,1149.119629 1649.645020,1119.236938 1641.932251,1090.049438 
	C1634.597290,1062.291138 1622.726562,1037.458496 1595.152832,1021.707214 
M1360.971313,772.999390 
	C1361.117554,843.303894 1361.263184,913.608398 1361.431641,983.912842 
	C1361.432373,984.195801 1361.737183,984.499817 1361.947998,984.754089 
	C1362.144043,984.990845 1362.404419,985.174255 1362.732544,985.466675 
	C1363.616089,985.561096 1364.603638,985.758972 1365.591064,985.758789 
	C1409.584717,985.750793 1453.586670,986.207336 1497.567261,985.438171 
	C1512.767700,985.172302 1528.070190,982.649963 1543.046387,979.726135 
	C1561.631592,976.097595 1576.854858,966.160767 1588.548218,951.072021 
	C1598.093140,938.755432 1604.047852,924.734741 1608.034546,909.823547 
	C1615.931763,880.285461 1617.526001,850.026001 1617.675415,819.674500 
	C1617.897095,774.681885 1617.928955,729.686279 1617.658203,684.694275 
	C1617.546143,666.048462 1617.015137,647.366455 1615.644653,628.776855 
	C1614.002441,606.497375 1610.085205,584.578674 1602.141235,563.496155 
	C1592.239014,537.216797 1574.042358,519.581055 1547.878296,509.812164 
	C1528.608032,502.617188 1508.610229,499.599396 1488.166504,499.426788 
	C1447.848877,499.086365 1407.529297,498.955566 1367.210449,498.790070 
	C1365.344604,498.782410 1363.476807,499.280884 1360.971436,499.633484 
	C1360.971436,590.464050 1360.971436,680.731689 1360.971313,772.999390 
z"/>
<path fill="#FEFEFE" opacity="1.000000" stroke="none" 
	d="
M1462.000000,1653.788086 
	C1538.267700,1653.788086 1613.535278,1653.788086 1689.409912,1653.788086 
	C1689.409912,1678.092529 1689.409912,1701.851929 1689.409912,1726.045654 
	C1519.234131,1726.045654 1349.392578,1726.045654 1178.930054,1726.045654 
	C1178.930054,1702.432129 1178.930054,1678.918457 1178.930054,1655.097168 
	C1178.892212,1655.143188 1179.079102,1654.858521 1179.322876,1654.636475 
	C1179.552246,1654.427612 1179.836182,1654.144409 1180.105347,1654.134033 
	C1183.760010,1653.994263 1187.416138,1653.802124 1191.072021,1653.801392 
	C1281.047974,1653.784058 1371.024048,1653.787842 1462.000000,1653.788086 
z"/>
<path fill="#4A4A4A" opacity="1.000000" stroke="none" 
	d="
M1553.725830,993.476929 
	C1550.440063,993.913391 1546.848633,993.913391 1543.257324,993.913391 
	C1543.151855,993.251709 1543.046387,992.590027 1542.940918,991.928284 
	C1545.491211,991.246338 1548.041626,990.564331 1551.340576,990.027771 
	C1552.532959,991.128967 1552.976685,992.084656 1553.725830,993.476929 
z"/>
<path fill="#010101" opacity="1.000000" stroke="none" 
	d="
M1595.810547,1022.029419 
	C1622.726562,1037.458496 1634.597290,1062.291138 1641.932251,1090.049438 
	C1649.645020,1119.236938 1651.965088,1149.119629 1652.035522,1179.154907 
	C1652.181519,1241.466919 1652.224731,1303.782471 1651.696655,1366.091187 
	C1651.464966,1393.417236 1649.110474,1420.685303 1641.916138,1447.215576 
	C1639.578003,1455.837646 1636.467041,1464.353882 1632.745483,1472.476929 
	C1622.342285,1495.184814 1604.757812,1510.110107 1581.239868,1518.218628 
	C1560.219116,1525.466064 1538.426270,1528.067017 1516.375610,1528.181030 
	C1466.058838,1528.441040 1415.739868,1528.276123 1365.421875,1528.264893 
	C1364.441162,1528.264648 1363.460449,1528.029053 1362.518799,1527.908203 
	C1360.616089,1520.891968 1359.949829,1018.217102 1361.901733,1002.897339 
	C1364.250977,1002.744080 1366.775391,1002.437073 1369.299927,1002.435791 
	C1414.619507,1002.412903 1459.941650,1002.149658 1505.257568,1002.558899 
	C1525.563721,1002.742249 1545.951660,1004.045837 1565.528564,1010.065552 
	C1575.640503,1013.174866 1585.292847,1017.778625 1595.810547,1022.029419 
z"/>
<path fill="#020202" opacity="1.000000" stroke="none" 
	d="
M1360.971436,771.999390 
	C1360.971436,680.731689 1360.971436,590.464050 1360.971436,499.633484 
	C1363.476807,499.280884 1365.344604,498.782410 1367.210449,498.790070 
	C1407.529297,498.955566 1447.848877,499.086365 1488.166504,499.426788 
	C1508.610229,499.599396 1528.608032,502.617188 1547.878296,509.812164 
	C1574.042358,519.581055 1592.239014,537.216797 1602.141235,563.496155 
	C1610.085205,584.578674 1614.002441,606.497375 1615.644653,628.776855 
	C1617.015137,647.366455 1617.546143,666.048462 1617.658203,684.694275 
	C1617.928955,729.686279 1617.897095,774.681885 1617.675415,819.674500 
	C1617.526001,850.026001 1615.931763,880.285461 1608.034546,909.823547 
	C1604.047852,924.734741 1598.093140,938.755432 1588.548218,951.072021 
	C1576.854858,966.160767 1561.631592,976.097595 1543.046387,979.726135 
	C1528.070190,982.649963 1512.767700,985.172302 1497.567261,985.438171 
	C1453.586670,986.207336 1409.584717,985.750793 1365.591064,985.758789 
	C1364.603638,985.758972 1363.616089,985.561096 1362.732544,985.466675 
	C1362.404419,985.174255 1362.144043,984.990845 1361.947998,984.754089 
	C1361.737183,984.499817 1361.432373,984.195801 1361.431641,983.912842 
	C1361.263184,913.608398 1361.117554,843.303894 1360.971436,771.999390 
z"/>
</svg>